<svg xmlns="http://www.w3.org/2000/svg" width="680" height="50">
  <rect width="680" height="50" fill="#2a2a25"/>
  <line x1="60" y1="0" x2="80" y2="18" stroke="#111" stroke-width="1.5"/>
  <line x1="80" y1="18" x2="72" y2="32" stroke="#111" stroke-width="1"/>
  <line x1="72" y1="32" x2="90" y2="50" stroke="#111" stroke-width="0.8"/>
  <line x1="80" y1="18" x2="100" y2="24" stroke="#111" stroke-width="0.7"/>
  <line x1="200" y1="10" x2="215" y2="30" stroke="#111" stroke-width="1.2"/>
  <line x1="215" y1="30" x2="205" y2="50" stroke="#111" stroke-width="0.9"/>
  <line x1="215" y1="30" x2="235" y2="38" stroke="#111" stroke-width="0.6"/>
  <line x1="340" y1="0" x2="360" y2="22" stroke="#111" stroke-width="1.5"/>
  <line x1="360" y1="22" x2="345" y2="38" stroke="#111" stroke-width="1"/>
  <line x1="345" y1="38" x2="355" y2="50" stroke="#111" stroke-width="0.8"/>
  <line x1="360" y1="22" x2="385" y2="28" stroke="#111" stroke-width="0.7"/>
  <line x1="480" y1="5" x2="495" y2="25" stroke="#111" stroke-width="1.2"/>
  <line x1="495" y1="25" x2="510" y2="50" stroke="#111" stroke-width="0.9"/>
  <line x1="600" y1="0" x2="615" y2="20" stroke="#111" stroke-width="1.3"/>
  <line x1="615" y1="20" x2="605" y2="38" stroke="#111" stroke-width="0.9"/>
  <rect x="0" y="48" width="680" height="2" fill="#111" opacity="0.6"/>
</svg>